<?xml version="1.0" encoding="UTF-8"?>
<svg id="Capa_2" data-name="Capa 2" xmlns="http://www.w3.org/2000/svg" viewBox="0 0 29.49 43.55">
  <defs>
    <style>
      .cls-1 {
        fill: #fff;
      }

      .cls-2 {
        fill: #e30613;
      }
    </style>
  </defs>
  <g id="Capa_1-2" data-name="Capa 1">
    <g>
      <path class="cls-1" d="M28.86,36.1l-7.42-13.26s0-.05,0-.07l5.74-5.74c1.95-1.95,1.95-5.12,0-7.08-1.95-1.95-5.12-1.95-7.08,0l-9.99,9.99s-.1,0-.1-.04l-.02-14.9C10.01,2.24,7.77,0,5,0S0,2.24,0,5v33.54c.01,2.76,2.25,5,5.02,5s5-2.24,5-5v-4.3s.01-.06.04-.08l3.95-3.95s.07-.02.1.01l6.02,10.76c1.35,2.41,4.4,3.27,6.81,1.92,2.41-1.35,3.27-4.4,1.92-6.81M23.64,11.48c1.11,0,2.02.89,2.02,1.99,0,1.1-.9,2.01-2,2.02-1.1,0-2-.9-2.01-2.01-.01-1.08.9-2,1.99-2M5.02,40.56c-1.1,0-2-.9-2.01-2.01-.01-1.08.9-2,1.99-2,1.11,0,2.02.89,2.02,1.99,0,1.1-.9,2.02-2,2.02M5.01,6.93c-1.1,0-2-.9-2.01-2.01-.01-1.08.9-2,1.99-2,1.11,0,2.02.89,2.02,1.99,0,1.1-.9,2.02-2,2.02"/>
      <path class="cls-2" d="M26.5,38.54c0,1.11-.9,2.02-2,2.02-1.1,0-2-.9-2.01-2.01-.01-1.08.9-2,1.99-2,1.11,0,2.02.89,2.02,1.99"/>
    </g>
  </g>
</svg>