<?xml version="1.0" encoding="UTF-8"?>
<svg id="Capa_2" data-name="Capa 2" xmlns="http://www.w3.org/2000/svg" viewBox="0 0 124.17 220.02">
  <defs>
    <style>
      .cls-1 {
        fill: #fff;
      }
    </style>
  </defs>
  <g id="Capa_1-2" data-name="Capa 1">
    <g>
      <path class="cls-1" d="M16.49,123.11c-9.68,0-16.49-7.51-16.49-17.96s6.81-17.96,16.49-17.96,16.49,7.52,16.49,17.96-6.76,17.96-16.49,17.96M16.49,120.59c8.12,0,13.72-6.4,13.72-15.43s-5.6-15.43-13.72-15.43-13.67,6.4-13.67,15.43,5.6,15.43,13.67,15.43"/>
      <path class="cls-1" d="M49.44,97.24v2.47h-1.87c-6,0-7.36,4.94-7.36,10.14v12.96h-2.57v-25.57h2.62v5.09c1.06-2.82,3.08-5.09,7.82-5.09h1.36Z"/>
      <path class="cls-1" d="M50.23,109.85c0-7.57,4.79-12.91,11.8-12.91s11.55,4.44,11.8,12.05c0,.3-.05.71-.05,1.06h-20.88v.45c.1,5.95,3.68,10.29,9.38,10.29,4.19,0,7.57-2.47,8.57-6.46h2.62c-1.11,5.14-5.4,8.77-10.99,8.77-7.26,0-12.26-5.24-12.26-13.26M71.06,107.88c-.4-5.6-3.98-8.67-8.98-8.67-4.69,0-8.57,3.48-8.98,8.67h17.96Z"/>
      <polygon class="cls-1" points="79.33 87.51 81.91 87.51 81.91 112.57 96.78 97.24 99.96 97.24 89.67 107.88 100.82 122.81 97.69 122.81 87.91 109.75 81.91 115.9 81.91 122.81 79.33 122.81 79.33 87.51"/>
      <path class="cls-1" d="M114.19,96.94c-5.85,0-9.73,2.82-10.39,7.46h2.57c.66-3.13,3.38-5.19,7.72-5.19,4.79,0,7.52,2.52,7.52,6.76v2.22h-8.68c-6.56,0-10.09,2.82-10.09,7.62,0,4.54,3.58,7.31,9.03,7.31s8.27-2.37,9.83-5.55v5.24h2.47v-16.74c0-5.85-3.58-9.13-9.99-9.13M121.6,112.47c0,4.89-3.48,8.42-9.53,8.42-4.08,0-6.61-2.07-6.61-5.25,0-3.38,2.52-5.24,7.26-5.24h8.88v2.07Z"/>
      <rect class="cls-1" x="60.8" y="82.36" width="2.57" height="16.85"/>
      <rect class="cls-1" x="61.06" y="61.6" width="2.06" height="20.76"/>
      <rect class="cls-1" x="61.26" y="40.79" width="1.65" height="20.64"/>
      <rect class="cls-1" x="61.43" y="19.97" width="1.32" height="20.4"/>
      <rect class="cls-1" x="61.61" width=".94" height="20.18"/>
      <rect class="cls-1" x="51.35" y="38.22" width="2.06" height="28.24" transform="translate(-21.67 52.36) rotate(-45)"/>
      <rect class="cls-1" x="57.66" y="51.32" width="28.24" height="2.06" transform="translate(-15.99 66.09) rotate(-45)"/>
      <rect class="cls-1" x="54.03" y="23.32" width="1.54" height="21.18" transform="translate(-7.93 48.68) rotate(-45)"/>
      <rect class="cls-1" x="58.76" y="33.15" width="21.18" height="1.54" transform="translate(-3.67 58.98) rotate(-45)"/>
      <rect class="cls-1" x="56.71" y="8.42" width="1.03" height="14.12" transform="translate(5.82 45) rotate(-45)"/>
      <rect class="cls-1" x="59.87" y="14.97" width="14.12" height="1.03" transform="translate(8.65 51.86) rotate(-45)"/>
      <rect class="cls-1" x="48.66" y="53.12" width="2.57" height="35.3" transform="translate(-35.41 56.05) rotate(-45)"/>
      <rect class="cls-1" x="56.55" y="69.5" width="35.3" height="2.57" transform="translate(-28.32 73.2) rotate(-45)"/>
      <rect class="cls-1" x="60.8" y="120.81" width="2.57" height="16.85"/>
      <rect class="cls-1" x="61.06" y="137.66" width="2.06" height="20.76"/>
      <rect class="cls-1" x="61.26" y="158.59" width="1.65" height="20.64"/>
      <rect class="cls-1" x="61.43" y="179.65" width="1.32" height="20.4"/>
      <rect class="cls-1" x="61.61" y="199.83" width=".94" height="20.18"/>
      <rect class="cls-1" x="38.25" y="166.65" width="28.24" height="2.06" transform="translate(-103.23 86.15) rotate(-45)"/>
      <rect class="cls-1" x="70.75" y="153.54" width="2.06" height="28.24" transform="translate(-97.53 99.86) rotate(-45)"/>
      <rect class="cls-1" x="44.21" y="185.34" width="21.18" height="1.54" transform="translate(-115.55 93.26) rotate(-45)"/>
      <rect class="cls-1" x="68.58" y="175.51" width="1.54" height="21.18" transform="translate(-111.28 103.55) rotate(-45)"/>
      <rect class="cls-1" x="50.17" y="204.02" width="14.12" height="1.03" transform="translate(-127.87 100.37) rotate(-45)"/>
      <rect class="cls-1" x="66.42" y="197.47" width="1.03" height="14.12" transform="translate(-125.02 107.23) rotate(-45)"/>
      <rect class="cls-1" x="32.3" y="147.96" width="35.3" height="2.57" transform="translate(-90.9 79.03) rotate(-45)"/>
      <rect class="cls-1" x="72.92" y="131.58" width="2.57" height="35.3" transform="translate(-83.79 96.18) rotate(-45)"/>
    </g>
  </g>
</svg>